<?xml version="1.0" encoding="UTF-8"?>
<svg xmlns="http://www.w3.org/2000/svg" xmlns:xlink="http://www.w3.org/1999/xlink" xmlns:svgjs="http://svgjs.com/svgjs" version="1.1" width="512" height="512" x="0" y="0" viewBox="0 0 512 512" style="enable-background:new 0 0 512 512" xml:space="preserve" class="">
  <g>
    <circle cx="256" cy="232.276" r="10.02" fill="#ebab0e" data-original="#000000"/>
    <path d="M381.842 254.522c5.209 1.831 10.916-.908 12.747-6.117s-.908-10.916-6.117-12.747-10.916.908-12.747 6.117c-1.83 5.21.908 10.917 6.117 12.747z" fill="#ebab0e" data-original="#000000"/>
    <path d="M474.236 376.007V280.67c0-8.582-5.428-16.297-13.517-19.203l-29.736-10.641c-5.206-1.864-10.945.846-12.809 6.057-1.865 5.21.847 10.945 6.058 12.81l29.724 10.637a.357.357 0 0 1 .241.34v88.057a72.134 72.134 0 0 0-14.275-1.425c-4.906 0-9.697.497-14.331 1.435v-55.433c0-8.692-5.515-16.436-13.706-19.265l-100.622-34.936a60.73 60.73 0 0 0 6.218-26.828c0-.266-.017-.528-.02-.793l22.17 7.934c1.115.4 2.254.589 3.376.589 4.113 0 7.969-2.552 9.433-6.646 1.865-5.21-.847-10.945-6.058-12.81l-33.724-12.069c-4.675-11.02-12.498-20.392-22.331-26.99V95.669h32.133c6.399 0 12.13-3.816 14.6-9.721a15.815 15.815 0 0 0-3.349-17.255L273.248 7.579C268.776 3.04 262.807.541 256.438.541h-.011c-6.369.002-12.335 2.504-16.777 7.023L178.104 69.77a15.176 15.176 0 0 0-3.214 16.558 15.16 15.16 0 0 0 14.02 9.341h32.724v86.352c-9.382 6.503-16.865 15.556-21.431 26.156L51.269 261.471c-8.077 2.902-13.505 10.617-13.505 19.199v95.337C15.29 388.225 0 412.051 0 439.38c0 39.745 32.335 72.079 72.078 72.079s72.078-32.334 72.078-72.079c0-27.307-15.265-51.115-37.708-63.342v-62.734c0-.15.09-.282.24-.334l106.885-37.106a61.47 61.47 0 0 0 8.06 6.666v93.714c-22.246 12.285-37.351 35.976-37.351 63.136 0 39.745 32.335 72.079 72.079 72.079s72.078-32.334 72.078-72.079c0-27.469-15.45-51.391-38.113-63.552V283.06a61.578 61.578 0 0 0 8.633-7.015l106.368 36.931a.344.344 0 0 1 .224.329v62.734c-22.444 12.227-37.708 36.035-37.708 63.342 0 39.745 32.335 72.079 72.078 72.079S512 479.125 512 439.38c0-27.329-15.29-51.155-37.764-63.373zM215.281 232.276c0-22.652 18.429-41.08 41.08-41.08s41.08 18.429 41.08 41.08-18.429 41.08-41.08 41.08-41.08-18.429-41.08-41.08zM231.653 75.63h-31.157l53.42-53.995a3.516 3.516 0 0 1 2.52-1.055h.002c.557 0 1.624.138 2.55 1.077l53.397 53.973h-32.077c-5.533 0-10.02 4.486-10.02 10.02v87.127a61.018 61.018 0 0 0-13.927-1.62c-5.063 0-9.981.63-14.689 1.796V85.649c0-5.533-4.486-10.019-10.019-10.019zM124.117 439.38c0 28.695-23.344 52.04-52.039 52.04s-52.039-23.345-52.039-52.04c0-28.694 23.344-52.039 52.039-52.039s52.039 23.345 52.039 52.039zm-23.985-145.346c-8.208 2.834-13.723 10.578-13.723 19.27v55.433a72.16 72.16 0 0 0-14.331-1.435c-4.886 0-9.659.494-14.275 1.425V280.67c0-.154.094-.287.229-.335l137.236-49.109c-.006.351-.027.698-.027 1.049a60.76 60.76 0 0 0 6.11 26.619zM308.4 439.38c0 28.695-23.344 52.04-52.039 52.04s-52.04-23.345-52.04-52.04c0-28.694 23.345-52.039 52.04-52.039S308.4 410.686 308.4 439.38zm-38.112-70.715a72.144 72.144 0 0 0-13.927-1.363c-5.033 0-9.945.523-14.689 1.509v-77.212a61.02 61.02 0 0 0 14.689 1.796c4.792 0 9.45-.572 13.927-1.62zM439.922 491.42c-28.695 0-52.039-23.345-52.039-52.04 0-28.694 23.344-52.039 52.039-52.039s52.039 23.345 52.039 52.039c0 28.695-23.345 52.04-52.039 52.04z" fill="#ebab0e" data-original="#000000"/>
  </g>
</svg>
