<?xml version="1.0" encoding="UTF-8"?>
<svg xmlns="http://www.w3.org/2000/svg" xmlns:xlink="http://www.w3.org/1999/xlink" xmlns:svgjs="http://svgjs.com/svgjs" version="1.1" width="512" height="512" x="0" y="0" viewBox="0 0 512 512" style="enable-background:new 0 0 512 512" xml:space="preserve" class="">
  <g>
    <path d="m507.43 249.217-48.995-31.68v-43.674c15.246-10.892 25.213-28.719 25.213-48.842 0-33.086-26.918-60.004-60.005-60.004-14.185 0-27.227 4.958-37.51 13.219-18.66-4.484-62.558-14.837-63.047-14.952-5.367-1.269-10.76 2.062-12.028 7.438-1.268 5.375 2.063 10.761 7.438 12.028.414.098 32.052 7.559 52.982 12.546-4.594 8.025-7.25 17.036-7.749 26.475l-.018.372a61.27 61.27 0 0 0-.075 2.881v.183L212.604 88.254c3.341-7.603 5.071-15.839 5.071-24.363 0-1.024-.032-2.043-.082-3.059-.005-.102-.014-.202-.02-.303a60.613 60.613 0 0 0-.135-2.05c6.618 1.506 13.683 3.15 25.107 5.843 5.379 1.265 10.761-2.064 12.028-7.439 1.267-5.375-2.063-10.761-7.439-12.028-17.544-4.135-24.868-5.811-35.986-8.294-10.02-19.792-30.547-33.4-54.206-33.4-33.486 0-60.729 27.243-60.729 60.729 0 20.107 9.83 37.954 24.928 49.013v123.184H96.363a9.997 9.997 0 0 0-8.181 4.25l-6.547 9.314-23.485-18.672a29.75 29.75 0 0 0 2.146-11.106c0-16.498-13.422-29.919-29.919-29.919S.457 203.376.457 219.874s13.421 29.919 29.919 29.919a29.733 29.733 0 0 0 14.541-3.784l25.197 20.033-10.11 14.384a9.997 9.997 0 0 0-1.819 5.75v153.209H10c-5.523 0-10 4.477-10 10v49.452c0 5.523 4.477 10 10 10h277.147c5.522 0 10-4.477 10-10v-49.452c0-5.523-4.478-10-10-10H249.31v-62.313c0-5.523-4.477-10-10-10h-47.547V113.601a61.207 61.207 0 0 0 8.941-7.669l167.046 40.871c4.677 11.961 13.081 22.06 23.784 28.869v40.287l-51.436 33.258a9.997 9.997 0 0 0-4.57 8.397v71.599c0 2.222.74 4.38 2.103 6.135l35.754 46.028a10.002 10.002 0 0 0 11.139 3.325 10 10 0 0 0 6.758-9.46v-74.538l32.483-21.516 32.484 21.516v74.538a10 10 0 0 0 17.897 6.135l35.753-46.028a10.005 10.005 0 0 0 2.103-6.134v-71.599a10.007 10.007 0 0 0-4.572-8.398zM20.457 219.874c0-5.469 4.45-9.919 9.919-9.919 5.47 0 9.919 4.45 9.919 9.919 0 5.47-4.45 9.919-9.919 9.919s-9.919-4.45-9.919-9.919zM156.941 23.162c17.523 0 32.496 11.124 38.231 26.681 4.4 11.952 2.86 25.584-4.097 36.244-6.941 10.634-18.629 17.497-31.29 18.423-7.811.571-15.732-1.212-22.577-5.006-12.509-6.959-20.996-20.311-20.996-35.613 0-22.458 18.271-40.729 40.729-40.729zM78.185 289.339l23.372-33.252h19.583v121.899l-30.942 61.399H78.185V289.339zm198.962 199.499H20v-29.452h257.148v29.452zm-85.383-101.766h37.546v52.313h-37.546v-52.313zm-20.002 52.305h-59.158l27.47-54.513a9.992 9.992 0 0 0 1.07-4.5V246.087c0-.023-.003-.045-.003-.068V122.53a61.064 61.064 0 0 0 30.622.253v316.594zm291.885-314.356c0 17.053-10.729 31.639-25.788 37.385-9.899 3.753-21.11 3.433-30.75-.961-8.539-3.892-15.567-10.807-19.602-19.279a40.029 40.029 0 0 1-3.868-17.146c0-22.058 17.945-40.004 40.004-40.004s40.004 17.947 40.004 40.005zm-45.897 59.712c6.906.661 13.957.157 20.684-1.552v22.38c-.073-.012-.146-.017-.219-.028l-.088-.011a9.99 9.99 0 0 0-1.374-.103h-25.221v-21.604c2.05.419 4.136.714 6.218.918zm-41.992 102.262a10 10 0 0 0-4.478 8.337v50.734l-15.754-20.281v-62.729l58.116-37.578V261.9l-37.884 25.095zM492 325.785l-15.753 20.28v-50.734a10 10 0 0 0-4.478-8.337L433.883 261.9v-36.422L492 263.057v62.728z" style="" fill="#ebab0e" data-original="#000000" class=""/>
    <path d="M156.941 92.595c15.827 0 28.704-12.876 28.704-28.704 0-15.827-12.876-28.704-28.704-28.704s-28.704 12.876-28.704 28.704c0 15.828 12.877 28.704 28.704 28.704zm0-37.407c4.799 0 8.704 3.904 8.704 8.704s-3.904 8.704-8.704 8.704-8.704-3.905-8.704-8.704 3.905-8.704 8.704-8.704zM423.643 154.385c16.191 0 29.364-13.172 29.364-29.364s-13.173-29.364-29.364-29.364-29.363 13.172-29.363 29.364 13.171 29.364 29.363 29.364zm0-38.728c3.889 0 7.462 2.504 8.798 6.155 1.352 3.696.177 7.945-2.858 10.442-3.04 2.501-7.453 2.816-10.813.76-3.304-2.021-5.056-5.973-4.319-9.778.842-4.343 4.769-7.579 9.192-7.579zM273.109 67.72c1.61 3.864 5.539 6.353 9.72 6.157 4.138-.194 7.739-3.014 9.024-6.929 1.298-3.952-.117-8.472-3.427-10.989-3.381-2.571-8.095-2.72-11.636-.379-3.941 2.606-5.463 7.792-3.681 12.14z" style="" fill="#ebab0e" data-original="#000000" class=""/>
  </g>
</svg>
