<?xml version="1.0" encoding="UTF-8"?>
<svg xmlns="http://www.w3.org/2000/svg" xmlns:xlink="http://www.w3.org/1999/xlink" xmlns:svgjs="http://svgjs.com/svgjs" version="1.1" width="512" height="512" x="0" y="0" viewBox="0 0 682.667 682.667" style="enable-background:new 0 0 512 512" xml:space="preserve">
  <g>
    <defs>
      <clipPath id="a">
        <path d="M0 512h512V0H0Z" fill="#ebab0e" data-original="#000000"/>
      </clipPath>
    </defs>
    <g clip-path="url(#a)" transform="matrix(1.33333 0 0 -1.33333 0 682.667)">
      <path d="m0 0 87.112-87.075c19.798 5.325 41.629 3.091 60.786-7.966 23.932-13.811 38.02-38.115 39.813-63.741.887-12.666-4.581-14.301-13.393-9.216l-26.846 15.494c-6.515 3.76-11.596 4.357-17.692.839l-9.958-5.746c-9.273-5.352-11.923-9.94-11.923-20.643v-11.494c.001-7.035 3.058-11.135 9.574-14.895l26.846-15.493c8.811-5.085 10.129-10.635-1.288-16.201-23.099-11.261-51.2-11.218-75.131 2.593-32.037 18.489-46.434 55.78-37.307 89.877l-87.16 87.123M-71.573 71.543l11.756-11.751m-56.568-56.544-87.113 87.076c-19.797-5.325-41.628-3.091-60.787 7.966-23.931 13.81-38.018 38.114-39.812 63.74-.886 12.667 4.581 14.301 13.393 9.216l26.846-15.493c6.515-3.76 11.597-4.357 17.692-.839l9.958 5.746c9.273 5.352 11.923 9.939 11.923 20.643v11.493c0 7.035-3.058 11.135-9.573 14.895l-26.847 15.494c-8.811 5.085-10.129 10.635 1.288 16.201 23.1 11.26 51.2 11.218 75.132-2.593 32.036-18.489 46.433-55.781 37.306-89.877l11.753-11.748" style="stroke-width:20;stroke-linecap:round;stroke-linejoin:round;stroke-miterlimit:2.613;stroke-dasharray:none;stroke-opacity:1" transform="translate(314.192 254.376)" fill="none" stroke="#ebab0e" stroke-width="20" stroke-linecap="round" stroke-linejoin="round" stroke-miterlimit="2.613" stroke-dasharray="none" stroke-opacity="" data-original="#000000"/>
      <path d="M0 0c38.263-22.082 51.373-70.987 29.282-109.234-18.497-32.023-55.804-46.414-89.916-37.291l-234.09-233.992c5.328-19.789 3.092-41.61-7.969-60.76-22.091-38.247-71.017-51.351-109.281-29.269-38.262 22.081-51.372 70.987-29.281 109.234 18.496 32.022 55.804 46.414 89.915 37.291L-117.249-90.03c-5.327 19.789-3.092 41.611 7.969 60.76C-87.189 8.978-38.263 22.082 0 0Z" style="stroke-width:20;stroke-linecap:round;stroke-linejoin:round;stroke-miterlimit:2.613;stroke-dasharray:none;stroke-opacity:1" transform="translate(461.986 491.274)" fill="none" stroke="#ebab0e" stroke-width="20" stroke-linecap="round" stroke-linejoin="round" stroke-miterlimit="2.613" stroke-dasharray="none" stroke-opacity="" data-original="#000000"/>
      <path d="m0 0-29.999-17.312-30 17.312v34.626l30 17.312L0 34.625Z" style="stroke-width:20;stroke-linecap:round;stroke-linejoin:round;stroke-miterlimit:2.613;stroke-dasharray:none;stroke-opacity:1" transform="translate(451.986 404.71)" fill="none" stroke="#ebab0e" stroke-width="20" stroke-linecap="round" stroke-linejoin="round" stroke-miterlimit="2.613" stroke-dasharray="none" stroke-opacity="" data-original="#000000"/>
      <path d="m0 0-30-17.313L-59.999 0v34.625L-30 51.938 0 34.625Z" style="stroke-width:20;stroke-linecap:round;stroke-linejoin:round;stroke-miterlimit:2.613;stroke-dasharray:none;stroke-opacity:1" transform="translate(120.012 72.666)" fill="none" stroke="#ebab0e" stroke-width="20" stroke-linecap="round" stroke-linejoin="round" stroke-miterlimit="2.613" stroke-dasharray="none" stroke-opacity="" data-original="#000000"/>
      <path d="m0 0-56.52-56.592" style="stroke-width:20;stroke-linecap:round;stroke-linejoin:round;stroke-miterlimit:2.613;stroke-dasharray:none;stroke-opacity:1" transform="translate(167.214 401.293)" fill="none" stroke="#ebab0e" stroke-width="20" stroke-linecap="round" stroke-linejoin="round" stroke-miterlimit="2.613" stroke-dasharray="none" stroke-opacity="" data-original="#000000"/>
      <path d="m0 0-56.52-56.592" style="stroke-width:20;stroke-linecap:round;stroke-linejoin:round;stroke-miterlimit:2.613;stroke-dasharray:none;stroke-opacity:1" transform="translate(401.305 167.301)" fill="none" stroke="#ebab0e" stroke-width="20" stroke-linecap="round" stroke-linejoin="round" stroke-miterlimit="2.613" stroke-dasharray="none" stroke-opacity="" data-original="#000000"/>
      <path d="m0 0 56.617-56.496" style="stroke-width:20;stroke-linecap:round;stroke-linejoin:round;stroke-miterlimit:2.613;stroke-dasharray:none;stroke-opacity:1" transform="translate(110.646 167.253)" fill="none" stroke="#ebab0e" stroke-width="20" stroke-linecap="round" stroke-linejoin="round" stroke-miterlimit="2.613" stroke-dasharray="none" stroke-opacity="" data-original="#000000"/>
      <path d="m0 0 56.616-56.496" style="stroke-width:20;stroke-linecap:round;stroke-linejoin:round;stroke-miterlimit:2.613;stroke-dasharray:none;stroke-opacity:1" transform="translate(344.737 401.244)" fill="none" stroke="#ebab0e" stroke-width="20" stroke-linecap="round" stroke-linejoin="round" stroke-miterlimit="2.613" stroke-dasharray="none" stroke-opacity="" data-original="#000000"/>
      <path d="M0 0h.007" style="stroke-width:20;stroke-linecap:round;stroke-linejoin:round;stroke-miterlimit:2.613;stroke-dasharray:none;stroke-opacity:1" transform="translate(210.788 357.73)" fill="none" stroke="#ebab0e" stroke-width="20" stroke-linecap="round" stroke-linejoin="round" stroke-miterlimit="2.613" stroke-dasharray="none" stroke-opacity="" data-original="#000000"/>
    </g>
  </g>
</svg>
