<?xml version="1.0" encoding="UTF-8"?>
<svg xmlns="http://www.w3.org/2000/svg" xmlns:xlink="http://www.w3.org/1999/xlink" xmlns:svgjs="http://svgjs.com/svgjs" version="1.1" width="512" height="512" x="0" y="0" viewBox="0 0 682.667 682.667" style="enable-background:new 0 0 512 512" xml:space="preserve" class="">
  <g>
    <defs>
      <clipPath id="a">
        <path d="M0 512h512V0H0Z" fill="#ebab0e" data-original="#000000"/>
      </clipPath>
    </defs>
    <g clip-path="url(#a)" transform="matrix(1.33333 0 0 -1.33333 0 682.667)">
      <path d="M0 0c30.471 0 55.302 24.831 55.302 55.303 0 30.444-24.831 55.275-55.302 55.275-30.442 0-55.301-24.831-55.301-55.275C-55.301 24.831-30.442 0 0 0Z" style="stroke-width:20;stroke-linecap:round;stroke-linejoin:round;stroke-miterlimit:10;stroke-dasharray:none;stroke-opacity:1" transform="translate(98.443 95.973)" fill="none" stroke="#ebab0e" stroke-width="20" stroke-linecap="round" stroke-linejoin="round" stroke-miterlimit="10" stroke-dasharray="none" stroke-opacity="" data-original="#000000" class=""/>
      <path d="M0 0c-29.11-4.422-51.616-29.707-51.616-60.008v-39.996h176.873v39.996c0 30.301-22.477 55.586-51.616 60.008" style="stroke-width:20;stroke-linecap:round;stroke-linejoin:round;stroke-miterlimit:10;stroke-dasharray:none;stroke-opacity:1" transform="translate(61.623 110.004)" fill="none" stroke="#ebab0e" stroke-width="20" stroke-linecap="round" stroke-linejoin="round" stroke-miterlimit="10" stroke-dasharray="none" stroke-opacity="" data-original="#000000" class=""/>
      <path d="M0 0c30.471 0 55.301 24.831 55.301 55.303 0 30.444-24.83 55.275-55.301 55.275-30.443 0-55.273-24.831-55.273-55.275C-55.273 24.831-30.443 0 0 0Z" style="stroke-width:20;stroke-linecap:round;stroke-linejoin:round;stroke-miterlimit:10;stroke-dasharray:none;stroke-opacity:1" transform="translate(413.528 95.973)" fill="none" stroke="#ebab0e" stroke-width="20" stroke-linecap="round" stroke-linejoin="round" stroke-miterlimit="10" stroke-dasharray="none" stroke-opacity="" data-original="#000000" class=""/>
      <path d="M0 0c-29.111-4.422-51.617-29.707-51.617-60.008v-39.996h176.902v39.996c0 30.301-22.506 55.586-51.644 60.008" style="stroke-width:20;stroke-linecap:round;stroke-linejoin:round;stroke-miterlimit:10;stroke-dasharray:none;stroke-opacity:1" transform="translate(376.708 110.004)" fill="none" stroke="#ebab0e" stroke-width="20" stroke-linecap="round" stroke-linejoin="round" stroke-miterlimit="10" stroke-dasharray="none" stroke-opacity="" data-original="#000000" class=""/>
      <path d="M0 0h-145.099c-27.721 0-50.398-22.677-50.398-50.399 0-27.723 22.677-50.399 50.398-50.399h89.004l59.78-38.267.737 38.465c25.681 2.24 45.976 23.953 45.976 50.201C50.398-22.677 27.722 0 0 0Z" style="stroke-width:20;stroke-linecap:round;stroke-linejoin:round;stroke-miterlimit:10;stroke-dasharray:none;stroke-opacity:1" transform="translate(415.512 395.25)" fill="none" stroke="#ebab0e" stroke-width="20" stroke-linecap="round" stroke-linejoin="round" stroke-miterlimit="10" stroke-dasharray="none" stroke-opacity="" data-original="#000000" class=""/>
      <path d="M0 0h68.227c43.226 0 78.572-35.347 78.572-78.575 0-9.921-1.87-19.417-5.243-28.175m-194.222-50.4h-36.026l-75.058-59.696-1.162 60.008c-40.024 3.486-71.713 37.36-71.713 78.263C-236.625-35.347-201.25 0-158.024 0h68.227" style="stroke-width:20;stroke-linecap:round;stroke-linejoin:round;stroke-miterlimit:10;stroke-dasharray:none;stroke-opacity:1" transform="translate(272.681 502)" fill="none" stroke="#ebab0e" stroke-width="20" stroke-linecap="round" stroke-linejoin="round" stroke-miterlimit="10" stroke-dasharray="none" stroke-opacity="" data-original="#000000" class=""/>
      <path d="M0 0v-.028" style="stroke-width:20;stroke-linecap:round;stroke-linejoin:round;stroke-miterlimit:10;stroke-dasharray:none;stroke-opacity:1" transform="translate(286.23 344.878)" fill="none" stroke="#ebab0e" stroke-width="20" stroke-linecap="round" stroke-linejoin="round" stroke-miterlimit="10" stroke-dasharray="none" stroke-opacity="" data-original="#000000" class=""/>
      <path d="M0 0v-.028" style="stroke-width:20;stroke-linecap:round;stroke-linejoin:round;stroke-miterlimit:10;stroke-dasharray:none;stroke-opacity:1" transform="translate(342.977 344.878)" fill="none" stroke="#ebab0e" stroke-width="20" stroke-linecap="round" stroke-linejoin="round" stroke-miterlimit="10" stroke-dasharray="none" stroke-opacity="" data-original="#000000" class=""/>
      <path d="M0 0v-.028" style="stroke-width:20;stroke-linecap:round;stroke-linejoin:round;stroke-miterlimit:10;stroke-dasharray:none;stroke-opacity:1" transform="translate(399.696 344.878)" fill="none" stroke="#ebab0e" stroke-width="20" stroke-linecap="round" stroke-linejoin="round" stroke-miterlimit="10" stroke-dasharray="none" stroke-opacity="" data-original="#000000" class=""/>
      <path d="M0 0h-.057" style="stroke-width:20;stroke-linecap:round;stroke-linejoin:round;stroke-miterlimit:10;stroke-dasharray:none;stroke-opacity:1" transform="translate(227.839 502)" fill="none" stroke="#ebab0e" stroke-width="20" stroke-linecap="round" stroke-linejoin="round" stroke-miterlimit="10" stroke-dasharray="none" stroke-opacity="" data-original="#000000" class=""/>
    </g>
  </g>
</svg>
